<?xml version="1.0" encoding="UTF-8"?><svg id="Layer_1" xmlns="http://www.w3.org/2000/svg" xmlns:xlink="http://www.w3.org/1999/xlink" viewBox="0 0 855.31 855.31"><defs><radialGradient id="radial-gradient" cx="427.65" cy="427.65" fx="427.65" fy="427.65" r="377.66" gradientUnits="userSpaceOnUse"><stop offset="0" stop-color="#a6d82b"/><stop offset=".96" stop-color="#57931d"/></radialGradient><radialGradient id="radial-gradient-2" cx="427.65" cy="427.65" fx="427.65" fy="427.65" r="427.65" xlink:href="#radial-gradient"/></defs><circle cx="427.65" cy="427.65" r="377.66" style="fill:url(#radial-gradient);"/><path d="M427.65,24.89c222.44,0,402.76,180.32,402.76,402.76s-180.32,402.76-402.76,402.76S24.89,650.09,24.89,427.65,205.21,24.89,427.65,24.89M427.65,0c-57.72,0-113.73,11.31-166.47,33.62-50.93,21.54-96.66,52.37-135.93,91.64-39.27,39.27-70.1,85-91.64,135.93C11.31,313.92,0,369.93,0,427.65s11.31,113.73,33.62,166.47c21.54,50.93,52.37,96.66,91.64,135.93,39.27,39.27,85,70.1,135.93,91.64,52.74,22.31,108.75,33.62,166.47,33.62s113.73-11.31,166.47-33.62c50.93-21.54,96.66-52.37,135.93-91.64,39.27-39.27,70.1-85,91.64-135.93,22.31-52.74,33.62-108.75,33.62-166.47s-11.31-113.73-33.62-166.47c-21.54-50.93-52.37-96.66-91.64-135.93-39.27-39.27-85-70.1-135.93-91.64C541.38,11.31,485.38,0,427.65,0h0Z" style="fill:url(#radial-gradient-2);"/><path d="M423.45,424.05c0,63.19-16.57,110.96-49.71,143.32-33.14,32.37-81.82,48.55-146.03,48.55h-90.14V239.39h101.73c60.09,0,105.81,15.71,137.15,47.13,31.33,31.42,47,77.26,47,137.53ZM394.86,425.08c0-53.91-13.69-94.47-41.08-121.69-27.39-27.21-67.61-40.82-120.66-40.82h-69.28v330.17h62.33c112.46,0,168.69-55.89,168.69-167.66Z" style="fill:#fff;"/><path d="M576.59,499.5c1.02-1.04,2.04-2.07,3.08-3.09.16-.15.31-.31.47-.46,1-.98,2-1.94,3.01-2.9.13-.12.25-.24.38-.36,2.26-2.13,4.56-4.22,6.9-6.27.25-.22.5-.43.76-.65.87-.76,1.75-1.51,2.63-2.25.38-.32.76-.64,1.15-.96.77-.64,1.54-1.28,2.32-1.91.42-.34.85-.69,1.27-1.03.79-.64,1.59-1.26,2.4-1.89.39-.3.78-.61,1.17-.91,1.12-.86,2.24-1.71,3.37-2.55.53-.4,1.08-.79,1.61-1.18.64-.47,1.28-.94,1.93-1.4.63-.45,1.26-.9,1.9-1.34.56-.39,1.12-.78,1.68-1.17.68-.47,1.36-.93,2.04-1.39.5-.34,1-.67,1.5-1,.74-.49,1.48-.98,2.23-1.47.26-.17.52-.33.78-.5,1.81-1.16,3.63-2.3,5.47-3.41.22-.13.44-.27.67-.41.89-.53,1.78-1.06,2.68-1.58.35-.2.69-.41,1.04-.61.9-.52,1.8-1.03,2.7-1.53.32-.18.64-.35.96-.53.96-.53,1.92-1.06,2.88-1.58.1-.05.2-.11.3-.16,11.09-5.93,22.69-11.04,34.7-15.22-55.15,9.65-104.13,37.98-139.92,78.4-21.56-20.1-29.66-55.3-29.66-89.06,0-36.12,8.16-63.89,24.5-83.34,16.32-19.43,39.44-29.16,69.33-29.16,32.66,0,62.64,6.74,89.94,20.22l32.4-80.35c-15.73-6.91-34.18-12.61-55.34-17.11-21.18-4.49-43.68-6.74-67.53-6.74-62.9,0-111.8,17.02-146.71,51.06-13.33,13-24.11,28-32.35,44.96,1.8,4.17,3.47,8.45,4.98,12.87,8.12,23.76,12.24,51.51,12.24,82.49s-4.35,61.44-12.93,86.17c-1.86,5.38-3.95,10.57-6.23,15.6,7.55,17.35,17.47,32.57,29.76,45.63,18.88,20.06,42.42,34.18,70.6,42.36,10.29-43.91,32.42-83.09,62.76-114.13.06-.06.11-.12.17-.17Z" style="fill:#fff;"/><path d="M561.38,395.19v53.58c49.58-50.2,148.12-14.23,148.12-14.23-22.79,13.49-20.06,26.56-44,63.68-23.94,37.12-53.5,42.82-73.88,43.68-6.25.26-22.56,1.47-35.93-4.39-15.77,23.49-27.56,49.91-34.38,78.34,17.39,4.27,36.45,6.41,57.18,6.41,53.22,0,102.04-7.6,146.45-22.81v-204.25h-163.56Z" style="fill:#fff;"/></svg>